<?xml version="1.0"?>
<!DOCTYPE svg PUBLIC "-//W3C//DTD SVG 1.1//EN"
  "http://www.w3.org/Graphics/SVG/1.1/DTD/svg11.dtd">

<!-- these days, you need the xmlns and xmlns:xlink! 2nd edition wassup -->
<svg width="200px" height="200px" viewBox="0 0 400 400"
  xmlns="http://www.w3.org/2000/svg"
  xmlns:xlink="http://www.w3.org/1999/xlink">
  <title>Clown</title>
  <desc>A creepy clown</desc>

  <!-- define objects, filters, etc we are going to use in this svg -->
  <defs>
    <g id="face">
      <ellipse cx="0" cy="0" rx="125" ry="170"
        style="fill: #fc9;"/>
    </g>

    <g id="eyebrow">
      <path d="M 0 0 c 20 -15, 50 -15, 100 0"
        style="stroke-width: 20px; stroke: black; fill: none;" />
    </g>


    <g id="eye">
      <!-- using an ellipse and a few circles to create the impression
      of an eye. -->
      <ellipse cx="0" cy="0" rx="50" ry="20" style="fill: white; stroke: none;" />
      <circle cx="10" cy="0" r="15" style="fill: green; stroke: none;" />
      <circle cx="10" cy="0" r="10" />
    </g>

    <g id="nose">
      <!-- Using cubic bezier curves to draw the nose.
      All relative points from the origin, so we can translate
      this whole graphic to wherever we want.
      Using a few grey circles for nostril holes.
     -->
      <path d="M 0 0 c 150 100, 100 150, 50 100
              c 0 5, 5 50, -50 0
              c 50 50, -125 50, 0 -100 z"
        style="fill: red; stroke: none;"/>
        <circle cx="10" cy="120" r="12"
          style="fill: grey; stroke: none;"/>
        <circle cx="50" cy="110" r="12"
          style="fill: grey; stroke: none;"/>
    </g>

    <g id="mouth">
      <!-- use relative quadratic bezier curves (q)
      and relative smooth shorthand quadratic beziers (t)
      to create a funky mouth shape.
      t automatically assumes the control point is the
      reflection of the control point on the previous command
      relative to the current point. good for sine-like curves. -->
      <path d="M 0 0 q 10 40 30 30
              t 20 0
              t 20 0
              q 30 -10 10 -30
              t -40 0
              t -30 0 z"
        style="fill: red; stroke: none;"/>

      <!-- lip line -->
      <path d="M 0 0 q 5 28 45 15
        t 40 0"
        style="fill: none; stroke: black; stroke-width: 3px;" />
    </g>

    <g id="hair">
      
    </g>


  </defs>

<use xlink:href="#face" transform="translate(195, 215)"/>

<!-- eyes-->
<use xlink:href="#eye" transform="translate(140, 185) skewX(25)"  />
<use xlink:href="#eye" transform="translate(260, 185) scale(-1, -1) skewX(-15)" />

<!-- using scale as a mirror function by scaling by -1 -->
<use xlink:href="#eyebrow" transform="translate(85, 150)" />
<use xlink:href="#eyebrow" transform="translate(310, 150) scale(-1, 1)" />

<use xlink:href="#nose" transform="translate(200, 210) scale(0.5)"/>

<use xlink:href="#mouth" transform="translate(160, 300)" />
</svg>
